<?xml version="1.0" encoding="utf-8"?>
<!-- Generator: Adobe Illustrator 26.0.3, SVG Export Plug-In . SVG Version: 6.00 Build 0)  -->
<svg version="1.1" xmlns="http://www.w3.org/2000/svg" xmlns:xlink="http://www.w3.org/1999/xlink" x="0px" y="0px"
	 viewBox="0 0 360 360" style="enable-background:new 0 0 360 360;" xml:space="preserve">
<style type="text/css">
	.st0{fill:#303030;}
	.st1{fill:#383838;}
	.st2{fill:#FFA000;}
</style>
<g id="Layer_1">
	<rect class="st0" width="360" height="360"/>
	<path class="st1" d="M267.9-5.9l-38,38c-1.6,1.6-4.1,1.6-5.7,0l-38-38c-1.6-1.6-1.6-4.1,0-5.7l38-38c1.6-1.6,4.1-1.6,5.7,0l38,38
		C269.5-10,269.5-7.5,267.9-5.9z"/>
	<path class="st1" d="M362.3-5.9l-38,38c-1.6,1.6-4.1,1.6-5.7,0l-38-38c-1.6-1.6-1.6-4.1,0-5.7l38-38c1.6-1.6,4.1-1.6,5.7,0l38,38
		C363.8-10,363.8-7.5,362.3-5.9z"/>
	<path class="st1" d="M79-6.2l-38,38c-1.6,1.6-4.1,1.6-5.7,0l-38-38c-1.6-1.6-1.6-4.1,0-5.7l38-38c1.6-1.6,4.1-1.6,5.7,0l38,38
		C80.5-10.3,80.5-7.8,79-6.2z"/>
	<path class="st1" d="M126.1,41l-38,38c-1.6,1.6-4.1,1.6-5.7,0l-38-38c-1.6-1.6-1.6-4.1,0-5.7l38-38c1.6-1.6,4.1-1.6,5.7,0l38,38
		C127.7,36.9,127.7,39.4,126.1,41z"/>
	<path class="st1" d="M220.5,41l-38,38c-1.6,1.6-4.1,1.6-5.7,0l-38-38c-1.6-1.6-1.6-4.1,0-5.7l38-38c1.6-1.6,4.1-1.6,5.7,0l38,38
		C222,36.9,222,39.4,220.5,41z"/>
	<path class="st1" d="M220.5,135.3l-38,38c-1.6,1.6-4.1,1.6-5.7,0l-38-38c-1.6-1.6-1.6-4.1,0-5.7l38-38c1.6-1.6,4.1-1.6,5.7,0l38,38
		C222,131.2,222,133.7,220.5,135.3z"/>
	<path class="st1" d="M362.7,88.9l-38,38c-1.6,1.6-4.1,1.6-5.7,0l-38-38c-1.6-1.6-1.6-4.1,0-5.7l38-38c1.6-1.6,4.1-1.6,5.7,0l38,38
		C364.3,84.8,364.3,87.3,362.7,88.9z"/>
	<path class="st1" d="M268.1,182.9l-38,38c-1.6,1.6-4.1,1.6-5.7,0l-38-38c-1.6-1.6-1.6-4.1,0-5.7l38-38c1.6-1.6,4.1-1.6,5.7,0l38,38
		C269.6,178.8,269.6,181.3,268.1,182.9z"/>
	<path class="st1" d="M315.2,135.7l-38,38c-1.6,1.6-4.1,1.6-5.7,0l-38-38c-1.6-1.6-1.6-4.1,0-5.7l38-38c1.6-1.6,4.1-1.6,5.7,0l38,38
		C316.8,131.6,316.8,134.2,315.2,135.7z"/>
	<path class="st1" d="M362.4,182.9l-38,38c-1.6,1.6-4.1,1.6-5.7,0l-38-38c-1.6-1.6-1.6-4.1,0-5.7l38-38c1.6-1.6,4.1-1.6,5.7,0l38,38
		C364,178.8,364,181.3,362.4,182.9z"/>
	<path class="st1" d="M362.4,277.2l-38,38c-1.6,1.6-4.1,1.6-5.7,0l-38-38c-1.6-1.6-1.6-4.1,0-5.7l38-38c1.6-1.6,4.1-1.6,5.7,0l38,38
		C364,273.1,364,275.7,362.4,277.2z"/>
	<path class="st1" d="M409.6,230.1l-38,38c-1.6,1.6-4.1,1.6-5.7,0l-38-38c-1.6-1.6-1.6-4.1,0-5.7l38-38c1.6-1.6,4.1-1.6,5.7,0l38,38
		C411.1,226,411.1,228.5,409.6,230.1z"/>
	<path class="st1" d="M409.6,324.4l-38,38c-1.6,1.6-4.1,1.6-5.7,0l-38-38c-1.6-1.6-1.6-4.1,0-5.7l38-38c1.6-1.6,4.1-1.6,5.7,0l38,38
		C411.1,320.3,411.1,322.8,409.6,324.4z"/>
	<path class="st1" d="M32.1,41.3l-38,38c-1.6,1.6-4.1,1.6-5.7,0l-38-38c-1.6-1.6-1.6-4.1,0-5.7l38-38C-10-4-7.5-4-5.9-2.4l38,38
		C33.7,37.2,33.7,39.7,32.1,41.3z"/>
	<path class="st1" d="M79.3,182.8l-38,38c-1.6,1.6-4.1,1.6-5.7,0l-38-38c-1.6-1.6-1.6-4.1,0-5.7l38-38c1.6-1.6,4.1-1.6,5.7,0l38,38
		C80.8,178.7,80.8,181.2,79.3,182.8z"/>
	<path class="st1" d="M126.4,135.6l-38,38c-1.6,1.6-4.1,1.6-5.7,0l-38-38c-1.6-1.6-1.6-4.1,0-5.7l38-38c1.6-1.6,4.1-1.6,5.7,0l38,38
		C128,131.5,128,134,126.4,135.6z"/>
	<path class="st1" d="M31.8,323.9l-38,38c-1.6,1.6-4.1,1.6-5.7,0l-38-38c-1.6-1.6-1.6-4.1,0-5.7l38-38c1.6-1.6,4.1-1.6,5.7,0l38,38
		C33.4,319.9,33.4,322.4,31.8,323.9z"/>
	<path class="st1" d="M79,276.8l-38,38c-1.6,1.6-4.1,1.6-5.7,0l-38-38c-1.6-1.6-1.6-4.1,0-5.7l38-38c1.6-1.6,4.1-1.6,5.7,0l38,38
		C80.5,272.7,80.5,275.2,79,276.8z"/>
	<path class="st1" d="M174,277.5l-38,38c-1.6,1.6-4.1,1.6-5.7,0l-38-38c-1.6-1.6-1.6-4.1,0-5.7l38-38c1.6-1.6,4.1-1.6,5.7,0l38,38
		C175.6,273.4,175.6,276,174,277.5z"/>
	<path class="st1" d="M221.2,230.4l-38,38c-1.6,1.6-4.1,1.6-5.7,0l-38-38c-1.6-1.6-1.6-4.1,0-5.7l38-38c1.6-1.6,4.1-1.6,5.7,0l38,38
		C222.8,226.3,222.8,228.8,221.2,230.4z"/>
	<path class="st1" d="M221.2,324.7l-38,38c-1.6,1.6-4.1,1.6-5.7,0l-38-38c-1.6-1.6-1.6-4.1,0-5.7l38-38c1.6-1.6,4.1-1.6,5.7,0l38,38
		C222.8,320.6,222.8,323.1,221.2,324.7z"/>
	<path class="st1" d="M268.4,371.9l-38,38c-1.6,1.6-4.1,1.6-5.7,0l-38-38c-1.6-1.6-1.6-4.1,0-5.7l38-38c1.6-1.6,4.1-1.6,5.7,0l38,38
		C269.9,367.8,269.9,370.3,268.4,371.9z"/>
	<path class="st1" d="M362.7,371.9l-38,38c-1.6,1.6-4.1,1.6-5.7,0l-38-38c-1.6-1.6-1.6-4.1,0-5.7l38-38c1.6-1.6,4.1-1.6,5.7,0l38,38
		C364.3,367.8,364.3,370.3,362.7,371.9z"/>
	<path class="st1" d="M79.4,371.6l-38,38c-1.6,1.6-4.1,1.6-5.7,0l-38-38c-1.6-1.6-1.6-4.1,0-5.7l38-38c1.6-1.6,4.1-1.6,5.7,0l38,38
		C81,367.5,81,370,79.4,371.6z"/>
	<g id="Layer_2_00000145039529681354757690000007222943242760151984_">
		<g id="Layer_1-2">
			<path class="st2" d="M259.3,110.7h-53.4L174,270.2h-24.9L181,110.7h-53.4l4.2-21h131.8L259.3,110.7z"/>
			<path class="st2" d="M225.6,133.4l11.2-11.5l69.6,58.1l-69.6,58.1l-11.2-11.4l56.5-46.5L225.6,133.4z"/>
			<path class="st2" d="M134.5,226.7l-11.3,11.4L53.6,180l69.6-58.1l11.3,11.5L78,179.8L134.5,226.7z"/>
		</g>
	</g>
</g>
<g id="Layer_2">
</g>
</svg>
